<?xml version="1.0" encoding="utf-8"?>
<!-- Generator: Adobe Illustrator 27.0.0, SVG Export Plug-In . SVG Version: 6.00 Build 0)  -->
<svg version="1.1" id="Capa_1" fill="rgb(200, 200, 200)" xmlns="http://www.w3.org/2000/svg" xmlns:xlink="http://www.w3.org/1999/xlink" x="0px" y="0px"
	 viewBox="0 0 138 24" style="enable-background:new 0 0 138 24;" xml:space="preserve">
<g>
	<path d="M31.9,18.4v-14h2.2v14H31.9z"/>
</g>
<g>
	<path d="M45.8,16.7v-12h4.4c1,0,1.7,0.2,2.4,0.5C53.2,5.5,53.7,6,54,6.5c0.3,0.6,0.5,1.2,0.5,1.8c0,0.7-0.2,1.4-0.6,2
		c-0.4,0.6-1,1-1.8,1.3l2.5,5H52L49.8,12H48v4.7H45.8z M48,10.4h2c0.7,0,1.3-0.2,1.6-0.5c0.3-0.4,0.5-0.8,0.5-1.4s-0.2-1-0.5-1.4
		c-0.3-0.3-0.9-0.5-1.6-0.5h-2V10.4z"/>
</g>
<g>
	<path d="M59.1,16.7v-12h2.2v12H59.1z"/>
</g>
<g>
	<path d="M69,16.7V6.5h-3.5V4.8h9.2v1.8h-3.5v10.2L69,16.7L69,16.7z"/>
</g>
<g>
	<path d="M78.2,16.7l4.4-12h2.5l4.4,12h-2.3l-1-2.8h-4.7l-1,2.8H78.2z M82.1,12.3h3.5l-1.7-5L82.1,12.3z"/>
</g>
<g>
	<path d="M99,16.9c-1.2,0-2.2-0.3-3.1-0.8s-1.5-1.2-2-2.2c-0.5-0.9-0.7-2-0.7-3.2s0.2-2.3,0.7-3.2s1.1-1.7,2-2.2s1.9-0.8,3.1-0.8
		c1.4,0,2.6,0.4,3.5,1.1s1.5,1.7,1.7,3h-2.4c-0.1-0.6-0.5-1.2-0.9-1.5c-0.5-0.4-1.1-0.6-1.9-0.6c-1.1,0-2,0.4-2.6,1.1
		c-0.6,0.8-0.9,1.8-0.9,3.1s0.3,2.3,0.9,3.1C97,14.6,97.9,15,99,15c0.8,0,1.4-0.2,1.9-0.5s0.8-0.8,0.9-1.4h2.4
		c-0.2,1.2-0.8,2.2-1.7,2.9C101.7,16.6,100.5,16.9,99,16.9z"/>
</g>
<g>
	<path d="M114.3,16.9c-1.2,0-2.2-0.3-3.1-0.8s-1.5-1.2-2-2.2c-0.5-0.9-0.7-2-0.7-3.2s0.2-2.3,0.7-3.2s1.1-1.7,2-2.2s1.9-0.8,3.1-0.8
		c1.4,0,2.6,0.4,3.5,1.1s1.5,1.7,1.7,3h-2.4c-0.1-0.6-0.5-1.2-0.9-1.5c-0.5-0.4-1.1-0.6-1.9-0.6c-1.1,0-2,0.4-2.6,1.1
		c-0.6,0.8-0.9,1.8-0.9,3.1s0.3,2.3,0.9,3.1c0.6,0.7,1.5,1.1,2.6,1.1c0.8,0,1.4-0.2,1.9-0.5s0.8-0.8,0.9-1.4h2.4
		c-0.2,1.2-0.8,2.2-1.7,2.9C116.9,16.6,115.7,16.9,114.3,16.9z"/>
</g>
<g>
	<path d="M129.7,16.9c-1.2,0-2.2-0.3-3.1-0.8s-1.6-1.3-2.1-2.2s-0.8-2-0.8-3.2s0.3-2.3,0.8-3.2s1.2-1.7,2.1-2.2s1.9-0.8,3.1-0.8
		s2.2,0.3,3.1,0.8c0.9,0.5,1.6,1.3,2.1,2.2s0.8,2,0.8,3.2s-0.3,2.3-0.8,3.2s-1.2,1.7-2.1,2.2C132,16.7,130.9,16.9,129.7,16.9z
		 M129.7,15c1.1,0,2-0.4,2.7-1.1c0.7-0.8,1-1.8,1-3.1s-0.3-2.3-1-3.1s-1.6-1.1-2.7-1.1c-1.1,0-2.1,0.4-2.7,1.1s-1,1.8-1,3.1
		s0.3,2.3,1,3.1C127.7,14.6,128.6,15,129.7,15z"/>
</g>
<path d="M2.6,3.8C2.6,3,3,2.4,3.8,2.1c0.7-0.3,1.6-0.2,2.1,0.4c0.9,0.9,1.7,1.7,2.6,2.6c4.5,4.5,9.1,9.1,13.6,13.6
	c0.4,0.4,0.7,1,0.6,1.6c-0.1,1.1-1.1,1.9-2.2,1.7c-0.5-0.1-0.9-0.3-1.2-0.6C14,16,8.6,10.6,3.2,5.3C2.8,4.9,2.6,4.4,2.6,3.8z"/>
<path d="M14.9,20.2c0,0.7-0.4,1.4-1.2,1.7c-0.8,0.3-1.5,0.2-2.1-0.3c0,0-0.1-0.1-0.1-0.1C8.8,18.6,6,15.8,3.2,13
	c-0.7-0.7-0.8-1.8-0.2-2.5c0.7-0.9,2.1-1,2.9-0.2c0.5,0.5,0.9,0.9,1.4,1.4c2.4,2.4,4.7,4.7,7.1,7.1C14.7,19.1,14.9,19.6,14.9,20.2z"
	/>
<path d="M19.3,8c0.6,0.6,1.1,1.1,1.7,1.7c0.4,0.4,0.8,0.8,1.2,1.2c1,1.1,0.6,2.9-0.9,3.2c-0.7,0.2-1.4,0-1.9-0.5
	c-0.8-0.8-1.6-1.6-2.3-2.3c-0.6-0.6-1.2-1.2-1.8-1.8c-0.8-0.8-0.8-2,0-2.8c1.4-1.4,2.8-2.8,4.2-4.2c0.9-0.9,2.4-0.7,3,0.4
	c0.5,0.8,0.3,1.7-0.3,2.4c-0.9,0.9-1.8,1.8-2.7,2.7C19.4,8,19.3,8,19.3,8z"/>
<path d="M7.2,20.3c0,0.7-0.4,1.3-1.1,1.7c-0.7,0.3-1.5,0.2-2.1-0.3c-0.4-0.3-0.7-0.7-1-1c-0.7-0.8-0.6-2,0.1-2.7
	c0.7-0.7,1.9-0.7,2.7,0c0.3,0.3,0.6,0.6,0.9,0.9C7,19.2,7.2,19.7,7.2,20.3z"/>
</svg>
